<mxfile host="app.diagrams.net" modified="2020-12-13T08:25:05.365Z" agent="5.0 (Windows NT 10.0; Win64; x64) AppleWebKit/537.36 (KHTML, like Gecko) Chrome/87.0.4280.88 Safari/537.36 Edg/87.0.664.60" etag="hHGfX3YTd75oWlcOFlx-" version="14.0.1" type="github">
  <diagram id="oB2wzyqAxSd8EY-rjCnN" name="第 1 页">
    <mxGraphModel dx="341" dy="205" grid="1" gridSize="10" guides="1" tooltips="1" connect="1" arrows="1" fold="1" page="1" pageScale="1" pageWidth="1169" pageHeight="1654" math="0" shadow="0">
      <root>
        <mxCell id="0" />
        <mxCell id="1" parent="0" />
        <mxCell id="xH3zILw_xM0kf-s-UhXb-47" style="edgeStyle=orthogonalEdgeStyle;rounded=0;orthogonalLoop=1;jettySize=auto;html=1;exitX=1;exitY=0.5;exitDx=0;exitDy=0;fontSize=3;" edge="1" parent="1" source="xH3zILw_xM0kf-s-UhXb-44" target="xH3zILw_xM0kf-s-UhXb-45">
          <mxGeometry relative="1" as="geometry" />
        </mxCell>
        <mxCell id="xH3zILw_xM0kf-s-UhXb-44" value="&lt;font style=&quot;font-size: 11px&quot;&gt;JS发送请求获取相关数据&lt;/font&gt;" style="rounded=0;whiteSpace=wrap;html=1;fontSize=3;" vertex="1" parent="1">
          <mxGeometry x="50" y="30" width="110" height="40" as="geometry" />
        </mxCell>
        <mxCell id="xH3zILw_xM0kf-s-UhXb-49" style="edgeStyle=orthogonalEdgeStyle;rounded=0;orthogonalLoop=1;jettySize=auto;html=1;fontSize=3;" edge="1" parent="1" source="xH3zILw_xM0kf-s-UhXb-45" target="xH3zILw_xM0kf-s-UhXb-48">
          <mxGeometry relative="1" as="geometry" />
        </mxCell>
        <mxCell id="xH3zILw_xM0kf-s-UhXb-45" value="php根据请求数据类型执行相关SQL语句" style="rounded=0;whiteSpace=wrap;html=1;fontSize=10;" vertex="1" parent="1">
          <mxGeometry x="200" y="30" width="110" height="40" as="geometry" />
        </mxCell>
        <mxCell id="xH3zILw_xM0kf-s-UhXb-51" style="edgeStyle=orthogonalEdgeStyle;rounded=0;orthogonalLoop=1;jettySize=auto;html=1;exitX=1;exitY=0.5;exitDx=0;exitDy=0;fontSize=3;" edge="1" parent="1" source="xH3zILw_xM0kf-s-UhXb-48" target="xH3zILw_xM0kf-s-UhXb-50">
          <mxGeometry relative="1" as="geometry">
            <Array as="points">
              <mxPoint x="480" y="50" />
              <mxPoint x="480" y="120" />
            </Array>
          </mxGeometry>
        </mxCell>
        <mxCell id="xH3zILw_xM0kf-s-UhXb-48" value="php将查询结果集保存到数组当中" style="rounded=0;whiteSpace=wrap;html=1;fontSize=10;" vertex="1" parent="1">
          <mxGeometry x="350" y="30" width="110" height="40" as="geometry" />
        </mxCell>
        <mxCell id="xH3zILw_xM0kf-s-UhXb-53" style="edgeStyle=orthogonalEdgeStyle;rounded=0;orthogonalLoop=1;jettySize=auto;html=1;fontSize=3;" edge="1" parent="1" source="xH3zILw_xM0kf-s-UhXb-50" target="xH3zILw_xM0kf-s-UhXb-52">
          <mxGeometry relative="1" as="geometry" />
        </mxCell>
        <mxCell id="xH3zILw_xM0kf-s-UhXb-50" value="php返回数据给前端js脚本" style="rounded=0;whiteSpace=wrap;html=1;fontSize=10;" vertex="1" parent="1">
          <mxGeometry x="350" y="100" width="110" height="40" as="geometry" />
        </mxCell>
        <mxCell id="xH3zILw_xM0kf-s-UhXb-55" style="edgeStyle=orthogonalEdgeStyle;rounded=0;orthogonalLoop=1;jettySize=auto;html=1;fontSize=3;" edge="1" parent="1" source="xH3zILw_xM0kf-s-UhXb-52" target="xH3zILw_xM0kf-s-UhXb-54">
          <mxGeometry relative="1" as="geometry" />
        </mxCell>
        <mxCell id="xH3zILw_xM0kf-s-UhXb-52" value="js将数据传给图表和其他HTML元素&lt;span style=&quot;color: rgba(0 , 0 , 0 , 0) ; font-family: monospace ; font-size: 0px&quot;&gt;%3CmxGraphModel%3E%3Croot%3E%3CmxCell%20id%3D%220%22%2F%3E%3CmxCell%20id%3D%221%22%20parent%3D%220%22%2F%3E%3CmxCell%20id%3D%222%22%20value%3D%22php%E8%BF%94%E5%9B%9E%E6%95%B0%E6%8D%AE%E7%BB%99%E5%89%8D%E7%AB%AFjs%E8%84%9A%E6%9C%AC%22%20style%3D%22rounded%3D0%3BwhiteSpace%3Dwrap%3Bhtml%3D1%3BfontSize%3D10%3B%22%20vertex%3D%221%22%20parent%3D%221%22%3E%3CmxGeometry%20x%3D%22500%22%20y%3D%2230%22%20width%3D%22110%22%20height%3D%2240%22%20as%3D%22geometry%22%2F%3E%3C%2FmxCell%3E%3C%2Froot%3E%3C%2FmxGraphModel%3E&lt;/span&gt;" style="rounded=0;whiteSpace=wrap;html=1;fontSize=10;" vertex="1" parent="1">
          <mxGeometry x="200" y="100" width="110" height="40" as="geometry" />
        </mxCell>
        <mxCell id="xH3zILw_xM0kf-s-UhXb-54" value="echart生成图表" style="rounded=0;whiteSpace=wrap;html=1;fontSize=10;" vertex="1" parent="1">
          <mxGeometry x="50" y="100" width="110" height="40" as="geometry" />
        </mxCell>
      </root>
    </mxGraphModel>
  </diagram>
</mxfile>
